<svg xmlns="http://www.w3.org/2000/svg" viewBox="0 0 200 80" width="200" height="80">
  <!-- Outer Rounded Border Container -->
  <rect x="3" y="3" width="194" height="74" rx="14" ry="14" fill="#FFFFFF" stroke="#00B066" stroke-width="5" />
  
  <!-- Sectigo Iconic Green Geometric 'S' Logo -->
  <g fill="#00B066">
    <path d="M48 20 C50.5 20 52 21.5 52 24 L52 27.5 C52 29 50.5 30.5 48 30.5 L36 30.5 C33.5 30.5 32 32 32 34.5 L32 36.5 C32 39 33.5 40.5 36 40.5 L46 40.5 C51 40.5 54 43.5 54 48.5 L54 52 C54 57 51 60 46 60 L24 60 C21.5 60 20 58.5 20 56 L20 52.5 C20 51 21.5 49.5 24 49.5 L38 49.5 C40.5 49.5 42 48 42 45.5 L42 43.5 C42 41 40.5 39.5 38 39.5 L28 39.5 C23 39.5 20 36.5 20 31.5 L20 28 C20 23 23 20 28 20 Z" />
  </g>

  <!-- Vertical Green Separator Bar -->
  <line x1="64" y1="20" x2="64" y2="60" stroke="#00B066" stroke-width="3.5" stroke-linecap="round" />

  <!-- Secured By Sectigo Official Brand Typography -->
  <text x="73" y="34" fill="#071E3D" font-family="'Plus Jakarta Sans', system-ui, -apple-system, sans-serif" font-weight="900" font-size="13.5" letter-spacing="0.5">SECURED BY</text>
  <text x="73" y="58" fill="#071E3D" font-family="'Plus Jakarta Sans', system-ui, -apple-system, sans-serif" font-weight="900" font-size="20" letter-spacing="1">SECTIGO</text>
</svg>
